<?xml version="1.0" standalone="no"?>
<!DOCTYPE svg PUBLIC "-//W3C//DTD SVG 20010904//EN"
 "http://www.w3.org/TR/2001/REC-SVG-20010904/DTD/svg10.dtd">
<svg version="1.0" xmlns="http://www.w3.org/2000/svg"
 width="1228.000000pt" height="1228.000000pt" viewBox="0 0 1228.000000 1228.000000"
 preserveAspectRatio="xMidYMid meet">
<metadata>
Created by potrace 1.14, written by Peter Selinger 2001-2017
</metadata>
<g transform="translate(0.000000,1228.000000) scale(0.100000,-0.100000)"
fill="#000000" stroke="none">
<path d="M1305 12133 c-459 -43 -851 -307 -1054 -712 -52 -102 -96 -235 -119
-355 -16 -85 -17 -398 -17 -4916 0 -5293 -5 -4897 62 -5105 107 -331 328 -595
632 -753 100 -52 279 -113 391 -134 91 -16 9564 -24 9755 -8 266 23 482 103
685 256 264 199 433 476 497 814 17 91 18 323 18 4910 0 3853 -3 4832 -13
4902 -15 106 -73 289 -119 383 -183 365 -514 616 -930 703 -72 15 -480 16
-4913 17 -2659 1 -4853 0 -4875 -2z m3578 -3940 c3 -920 5 -1004 25 -1223 26
-273 40 -388 88 -710 58 -388 88 -542 170 -870 77 -309 68 -286 87 -220 138
476 257 1165 318 1860 19 212 22 327 26 1193 l5 957 544 0 544 0 0 -912 c0
-807 2 -943 19 -1173 32 -416 101 -942 172 -1300 30 -152 159 -688 164 -683 9
9 130 513 159 659 38 192 116 698 140 909 51 439 56 594 56 1571 l0 929 546 0
546 0 -5 -937 c-6 -946 -10 -1078 -47 -1439 -57 -563 -149 -1072 -291 -1623
-110 -423 -239 -778 -424 -1164 -71 -148 -120 -213 -190 -250 -39 -22 -48 -22
-490 -22 -445 0 -450 0 -491 22 -23 12 -59 42 -80 66 -50 57 -175 308 -264
529 -63 158 -70 170 -79 146 -56 -149 -128 -314 -201 -463 -92 -189 -127 -237
-205 -278 -39 -22 -48 -22 -490 -22 l-450 0 -47 28 c-68 40 -108 94 -183 252
-186 389 -314 739 -424 1165 -142 550 -234 1067 -291 1640 -36 360 -41 507
-47 1438 l-6 912 546 0 546 0 4 -987z m-1573 -1673 l0 -300 -1400 0 -1400 0 0
300 0 300 1400 0 1400 0 0 -300z m8490 0 l0 -300 -1400 0 -1400 0 0 300 0 300
1400 0 1400 0 0 -300z"/>
</g>
</svg>
